<svg xmlns="http://www.w3.org/2000/svg" width="609" height="544" viewBox="0 0 609 544">
  <g>
    <g>
      <path fill="#fff" d="M607.075 279.15c33.961-383.376-382.616-339.696-562.65-63.649-132.397 239.572 65.447 343.39 147.98 279.492l23.05 17.299-21.609 23.064 93.637 8.65-15.846-82.168-25.93 25.948s-26.3-18.007-44.658-31.714C-12.069 564.887-40.023 180.027 319.855 49.322c372.976-91.362 281.749 446.791 55.503 389.451-92.666-54.734 23.652-161.66 76.35-216.23 0 0 67.405-69.045 70.588-73.519 0 0 4.076-4.139 0-10.09l-20.168-12.974s-6.823-1.35-8.644 2.883c0 0-133.808 137.26-240.575 209.023 0 0-125.19 83.17-18.727-25.948 0 0 103.639-94.64 110.924-102.35 0 0 50.185-47.664 14.405-73.517 0 0-34.76-26.857-99.399-1.442 0 0-104.47 37.73-116.686 113.881 0 0 1.37 1.442 2.881 1.442 1.362 0 2.882-1.442 2.882-1.442s94.294-102.686 181.511-98.024c0 0 15.054 5.742-47.539 57.661 0 0-39.453 35.35-79.23 72.077 0 0-72.307 63.115-77.792 103.79 0 0-14.407 55.505 70.588 31.715 0 0 64.239-9.847 128.21-85.051-10.403 13.532-53.387 100.459 34.574 138.388 48.101 21.71 205.484 2.01 247.564-189.896z"/>
    </g>
  </g>
</svg>